<?xml version="1.0" standalone="no"?>
<!DOCTYPE svg PUBLIC "-//W3C//DTD SVG 20010904//EN"
 "http://www.w3.org/TR/2001/REC-SVG-20010904/DTD/svg10.dtd">
<svg version="1.0" xmlns="http://www.w3.org/2000/svg"
 width="700.000000pt" height="700.000000pt" viewBox="0 0 700.000000 700.000000"
 preserveAspectRatio="xMidYMid meet">
<metadata>
Created by potrace 1.14, written by Peter Selinger 2001-2017
</metadata>
<g transform="translate(0.000000,700.000000) scale(0.100000,-0.100000)"
fill="#000000" stroke="none">
<path d="M3280 6994 c-19 -2 -84 -9 -145 -14 -636 -62 -1266 -316 -1795 -726
-148 -114 -480 -446 -594 -594 -411 -530 -654 -1132 -728 -1795 -17 -155 -17
-575 0 -730 52 -469 197 -931 418 -1327 288 -519 734 -985 1234 -1291 450
-274 920 -434 1465 -499 142 -17 586 -17 730 0 427 50 807 159 1170 336 588
288 1108 761 1448 1316 274 450 434 920 499 1465 17 144 17 586 0 730 -100
846 -447 1557 -1043 2141 -557 544 -1242 872 -2029 970 -117 15 -552 27 -630
18z m619 -229 c486 -63 943 -226 1353 -483 187 -118 386 -272 501 -389 l47
-49 -68 -74 -69 -74 -103 93 c-549 493 -1224 762 -1970 788 -812 27 -1618
-280 -2208 -842 l-93 -88 -70 69 c-38 37 -69 71 -69 75 0 11 167 171 249 238
519 431 1166 694 1845 751 139 12 517 3 655 -15z m-87 -1714 c344 -74 670
-266 886 -523 83 -99 164 -217 156 -229 -3 -5 -137 -9 -298 -9 l-292 0 -70 56
c-127 102 -262 171 -419 215 -119 32 -365 38 -495 11 -221 -46 -382 -134 -550
-302 -127 -126 -194 -227 -251 -374 -96 -248 -96 -544 0 -792 56 -144 125
-248 246 -370 156 -157 296 -239 505 -296 75 -20 107 -23 270 -23 162 0 195 3
270 23 159 44 297 114 424 216 l70 56 292 0 c161 0 295 -4 298 -8 7 -12 -90
-153 -168 -244 -218 -254 -564 -451 -906 -515 -144 -27 -450 -24 -586 5 -682
147 -1179 684 -1264 1366 -17 133 -7 371 20 501 95 450 380 839 778 1063 164
92 384 167 567 191 115 16 405 5 517 -18z m-3297 -2301 c193 -809 759 -1541
1509 -1954 66 -36 158 -82 205 -102 47 -20 90 -40 95 -44 8 -8 -47 -163 -65
-184 -9 -11 -70 14 -234 96 -234 117 -465 271 -660 438 -121 104 -332 322
-430 445 -240 300 -460 707 -570 1055 -31 99 -95 356 -95 382 0 12 11 19 38
24 20 3 64 12 97 18 53 11 61 11 66 -3 4 -9 23 -86 44 -171z m6123 104 c45 -9
82 -21 82 -25 0 -5 -18 -78 -39 -163 -106 -415 -333 -867 -611 -1216 -103
-129 -323 -355 -450 -462 -128 -107 -274 -214 -406 -294 -109 -67 -374 -204
-394 -204 -9 0 -68 117 -84 167 -5 16 9 26 90 63 209 95 485 276 695 457 466
402 819 976 964 1568 34 143 32 137 52 131 10 -2 55 -12 101 -22z"/>
</g>
</svg>
